<svg width="1280" height="832" viewBox="0 0 1280 832" fill="none" xmlns="http://www.w3.org/2000/svg">
<path d="M-61.6723 412.656C-68.4459 361.412 -59.6089 314.355 -41.229 265.992C-14.8817 196.664 80.5314 149.754 147.923 156.71C206.253 162.731 243.186 212.139 226.806 264.652C209.469 320.233 141.316 314.007 114.635 301.847C63.2197 278.415 69.8498 190.896 95.9684 149.732C120.764 110.653 168.023 97.4246 194.559 60.3419C210.692 37.795 209.609 6.8026 206.177 -19.164C204.04 -35.3305 202.725 -77.3089 182.927 -84.0409" stroke="#F7A917" stroke-width="39" stroke-linecap="round"/>
<path d="M1058.33 941.656C1051.55 890.412 1060.39 843.355 1078.77 794.992C1105.12 725.664 1200.53 678.754 1267.92 685.71C1326.25 691.731 1363.19 741.139 1346.81 793.652C1329.47 849.233 1261.32 843.007 1234.63 830.847C1183.22 807.415 1189.85 719.896 1215.97 678.732C1240.76 639.653 1288.02 626.425 1314.56 589.342C1330.69 566.795 1329.61 535.803 1326.18 509.836C1324.04 493.669 1322.72 451.691 1302.93 444.959" stroke="#F75482" stroke-width="39" stroke-linecap="round"/>
<path d="M995 -37C1024.16 -37 1040.75 -20.815 1052.5 1C1074.98 42.7211 1075.16 86.8414 1087 132.5C1096.29 168.343 1111.18 228.867 1134 254.5C1153.24 276.105 1180.7 292.29 1206 302C1240.72 315.328 1264.53 315.916 1300.29 315.916C1305.2 315.916 1332.77 316.149 1321.28 309.258" stroke="#007FB7" stroke-width="39" stroke-linecap="round"/>
<path d="M301.057 1008.92C271.894 1008.92 255.311 992.732 243.557 970.917C221.077 929.196 220.894 885.076 209.057 839.417C199.764 803.574 184.881 743.05 162.057 717.417C142.819 695.812 115.353 679.627 90.0566 669.917C55.335 656.589 31.5217 656.001 -4.23077 656.001C-9.14619 656.001 -36.7104 655.768 -25.2245 662.659" stroke="#79C1F0" stroke-width="39" stroke-linecap="round"/>
</svg>
