<svg width="528" height="246" viewBox="0 0 528 246" fill="none" xmlns="http://www.w3.org/2000/svg">
<mask id="path-1-inside-1_1666_5695" fill="white">
<path d="M5.47232 67.706C2.45004 59.4023 6.73144 50.2209 15.0351 47.1986L129.678 5.47212C137.981 2.44984 147.163 6.73124 150.185 15.0349L209.354 177.602C212.377 185.905 208.095 195.087 199.792 198.109L85.1492 239.836C76.8456 242.858 67.6641 238.576 64.6418 230.273L5.47232 67.706Z"/>
</mask>
<path d="M5.47232 67.706C2.45004 59.4023 6.73144 50.2209 15.0351 47.1986L129.678 5.47212C137.981 2.44984 147.163 6.73124 150.185 15.0349L209.354 177.602C212.377 185.905 208.095 195.087 199.792 198.109L85.1492 239.836C76.8456 242.858 67.6641 238.576 64.6418 230.273L5.47232 67.706Z" fill="#FFC777"/>
<path d="M15.0351 47.1986L15.7191 49.078L130.362 7.35151L129.678 5.47212L128.994 3.59274L14.351 45.3192L15.0351 47.1986ZM150.185 15.0349L148.306 15.7189L207.475 178.286L209.354 177.602L211.234 176.918L152.064 14.3508L150.185 15.0349ZM199.792 198.109L199.108 196.23L84.4652 237.956L85.1492 239.836L85.8332 241.715L200.476 199.988L199.792 198.109ZM64.6418 230.273L66.5212 229.589L7.35171 67.0219L5.47232 67.706L3.59294 68.39L62.7624 230.957L64.6418 230.273ZM85.1492 239.836L84.4652 237.956C77.1995 240.601 69.1657 236.854 66.5212 229.589L64.6418 230.273L62.7624 230.957C66.1625 240.298 76.4916 245.115 85.8332 241.715L85.1492 239.836ZM209.354 177.602L207.475 178.286C210.12 185.551 206.373 193.585 199.108 196.23L199.792 198.109L200.476 199.988C209.817 196.588 214.634 186.259 211.234 176.918L209.354 177.602ZM129.678 5.47212L130.362 7.35151C137.627 4.70701 145.661 8.45323 148.306 15.7189L150.185 15.0349L152.064 14.3508C148.664 5.00924 138.335 0.192669 128.994 3.59274L129.678 5.47212ZM15.0351 47.1986L14.351 45.3192C5.00944 48.7193 0.192871 59.0484 3.59294 68.39L5.47232 67.706L7.35171 67.0219C4.70721 59.7562 8.45343 51.7225 15.7191 49.078L15.0351 47.1986Z" fill="#F7A917" mask="url(#path-1-inside-1_1666_5695)"/>
<mask id="path-3-inside-2_1666_5695" fill="white">
<path d="M109.863 67.706C106.841 59.4023 111.122 50.2209 119.426 47.1986L234.068 5.47212C242.372 2.44984 251.553 6.73124 254.576 15.0349L313.745 177.602C316.767 185.905 312.486 195.087 304.182 198.109L189.54 239.836C181.236 242.858 172.055 238.576 169.032 230.273L109.863 67.706Z"/>
</mask>
<path d="M109.863 67.706C106.841 59.4023 111.122 50.2209 119.426 47.1986L234.068 5.47212C242.372 2.44984 251.553 6.73124 254.576 15.0349L313.745 177.602C316.767 185.905 312.486 195.087 304.182 198.109L189.54 239.836C181.236 242.858 172.055 238.576 169.032 230.273L109.863 67.706Z" fill="#FFC777"/>
<path d="M119.426 47.1986L120.11 49.078L234.752 7.35151L234.068 5.47212L233.384 3.59274L118.742 45.3192L119.426 47.1986ZM254.576 15.0349L252.696 15.7189L311.866 178.286L313.745 177.602L315.624 176.918L256.455 14.3508L254.576 15.0349ZM304.182 198.109L303.498 196.23L188.856 237.956L189.54 239.836L190.224 241.715L304.866 199.988L304.182 198.109ZM169.032 230.273L170.912 229.589L111.742 67.0219L109.863 67.706L107.984 68.39L167.153 230.957L169.032 230.273ZM189.54 239.836L188.856 237.956C181.59 240.601 173.556 236.854 170.912 229.589L169.032 230.273L167.153 230.957C170.553 240.298 180.882 245.115 190.224 241.715L189.54 239.836ZM313.745 177.602L311.866 178.286C314.51 185.551 310.764 193.585 303.498 196.23L304.182 198.109L304.866 199.988C314.208 196.588 319.025 186.259 315.624 176.918L313.745 177.602ZM234.068 5.47212L234.752 7.35151C242.018 4.70701 250.052 8.45323 252.696 15.7189L254.576 15.0349L256.455 14.3508C253.055 5.00924 242.726 0.192669 233.384 3.59274L234.068 5.47212ZM119.426 47.1986L118.742 45.3192C109.4 48.7193 104.583 59.0484 107.984 68.39L109.863 67.706L111.742 67.0219C109.098 59.7562 112.844 51.7225 120.11 49.078L119.426 47.1986Z" fill="#F7A917" mask="url(#path-3-inside-2_1666_5695)"/>
<mask id="path-5-inside-3_1666_5695" fill="white">
<path d="M214.255 67.706C211.232 59.4023 215.514 50.2209 223.817 47.1986L338.46 5.47212C346.763 2.44984 355.945 6.73124 358.967 15.0349L418.137 177.602C421.159 185.905 416.878 195.087 408.574 198.109L293.931 239.836C285.628 242.858 276.446 238.576 273.424 230.273L214.255 67.706Z"/>
</mask>
<path d="M214.255 67.706C211.232 59.4023 215.514 50.2209 223.817 47.1986L338.46 5.47212C346.763 2.44984 355.945 6.73124 358.967 15.0349L418.137 177.602C421.159 185.905 416.878 195.087 408.574 198.109L293.931 239.836C285.628 242.858 276.446 238.576 273.424 230.273L214.255 67.706Z" fill="#FFC777"/>
<path d="M223.817 47.1986L224.501 49.078L339.144 7.35151L338.46 5.47212L337.776 3.59274L223.133 45.3192L223.817 47.1986ZM358.967 15.0349L357.088 15.7189L416.257 178.286L418.137 177.602L420.016 176.918L360.847 14.3508L358.967 15.0349ZM408.574 198.109L407.89 196.23L293.247 237.956L293.931 239.836L294.615 241.715L409.258 199.988L408.574 198.109ZM273.424 230.273L275.303 229.589L216.134 67.0219L214.255 67.706L212.375 68.39L271.545 230.957L273.424 230.273ZM293.931 239.836L293.247 237.956C285.982 240.601 277.948 236.854 275.303 229.589L273.424 230.273L271.545 230.957C274.945 240.298 285.274 245.115 294.615 241.715L293.931 239.836ZM418.137 177.602L416.257 178.286C418.902 185.551 415.156 193.585 407.89 196.23L408.574 198.109L409.258 199.988C418.6 196.588 423.416 186.259 420.016 176.918L418.137 177.602ZM338.46 5.47212L339.144 7.35151C346.41 4.70701 354.443 8.45323 357.088 15.7189L358.967 15.0349L360.847 14.3508C357.447 5.00924 347.117 0.192669 337.776 3.59274L338.46 5.47212ZM223.817 47.1986L223.133 45.3192C213.792 48.7193 208.975 59.0484 212.375 68.39L214.255 67.706L216.134 67.0219C213.489 59.7562 217.236 51.7225 224.501 49.078L223.817 47.1986Z" fill="#F7A917" mask="url(#path-5-inside-3_1666_5695)"/>
<mask id="path-7-inside-4_1666_5695" fill="white">
<path d="M318.645 67.706C315.623 59.4023 319.904 50.2209 328.208 47.1986L442.85 5.47212C451.154 2.44984 460.336 6.73124 463.358 15.0349L522.527 177.602C525.55 185.905 521.268 195.087 512.965 198.109L398.322 239.836C390.018 242.858 380.837 238.576 377.815 230.273L318.645 67.706Z"/>
</mask>
<path d="M318.645 67.706C315.623 59.4023 319.904 50.2209 328.208 47.1986L442.85 5.47212C451.154 2.44984 460.336 6.73124 463.358 15.0349L522.527 177.602C525.55 185.905 521.268 195.087 512.965 198.109L398.322 239.836C390.018 242.858 380.837 238.576 377.815 230.273L318.645 67.706Z" fill="#FFC777"/>
<path d="M328.208 47.1986L328.892 49.078L443.534 7.35151L442.85 5.47212L442.166 3.59274L327.524 45.3192L328.208 47.1986ZM463.358 15.0349L461.478 15.7189L520.648 178.286L522.527 177.602L524.407 176.918L465.237 14.3508L463.358 15.0349ZM512.965 198.109L512.281 196.23L397.638 237.956L398.322 239.836L399.006 241.715L513.649 199.988L512.965 198.109ZM377.815 230.273L379.694 229.589L320.525 67.0219L318.645 67.706L316.766 68.39L375.935 230.957L377.815 230.273ZM398.322 239.836L397.638 237.956C390.372 240.601 382.339 236.854 379.694 229.589L377.815 230.273L375.935 230.957C379.335 240.298 389.664 245.115 399.006 241.715L398.322 239.836ZM522.527 177.602L520.648 178.286C523.292 185.551 519.546 193.585 512.281 196.23L512.965 198.109L513.649 199.988C522.99 196.588 527.807 186.259 524.407 176.918L522.527 177.602ZM442.85 5.47212L443.534 7.35151C450.8 4.70701 458.834 8.45323 461.478 15.7189L463.358 15.0349L465.237 14.3508C461.837 5.00924 451.508 0.192669 442.166 3.59274L442.85 5.47212ZM328.208 47.1986L327.524 45.3192C318.182 48.7193 313.366 59.0484 316.766 68.39L318.645 67.706L320.525 67.0219C317.88 59.7562 321.626 51.7225 328.892 49.078L328.208 47.1986Z" fill="#F7A917" mask="url(#path-7-inside-4_1666_5695)"/>
</svg>
