<svg width="229" height="230" viewBox="0 0 229 230" fill="none" xmlns="http://www.w3.org/2000/svg">
<ellipse cx="114.5" cy="203.707" rx="113.904" ry="25.9935" transform="rotate(0.150808 114.5 203.707)" fill="#00465C"/>
<path d="M111.841 0.168614C147.22 0.261859 175.824 29.0176 175.731 64.3966L175.308 225.293C156.965 228.123 134.747 229.753 110.809 229.69C87.2409 229.628 65.3494 227.936 47.1878 225.09L47.6117 64.0593C47.7049 28.6803 76.4615 0.0754922 111.841 0.168614Z" fill="#95D4FF"/>
<path d="M133.578 35.5239C135.24 35.3177 136.889 36.1225 138.212 37.6135C139.535 39.1044 140.525 41.2741 140.859 43.7687C141.194 46.2632 140.81 48.6024 139.925 50.3672C139.039 52.1326 137.657 53.3142 135.994 53.5206C134.332 53.7268 132.682 52.9214 131.359 51.43C130.036 49.9392 129.047 47.7702 128.712 45.2758C128.377 42.7812 128.76 40.4412 129.646 38.6763C130.532 36.911 131.915 35.7301 133.578 35.5239Z" fill="#003753" stroke="#003F1D" stroke-width="0.190776"/>
<path d="M90.7009 35.3833C92.3626 35.5911 93.7426 36.7857 94.6249 38.5725C95.5069 40.3589 95.8852 42.7277 95.5444 45.2536C95.2036 47.7794 94.2093 49.9757 92.8825 51.4858C91.5553 52.9965 89.9041 53.8127 88.2423 53.6049C86.5804 53.3971 85.1997 52.2017 84.3174 50.4146C83.4356 48.6283 83.058 46.2602 83.3988 43.7346C83.7396 41.2088 84.733 39.0115 86.0598 37.5013C87.387 35.9906 89.039 35.1755 90.7009 35.3833Z" fill="#003753" stroke="#003F1D" stroke-width="0.190776"/>
<path d="M105.119 68.4293C105.119 68.4293 106.461 77.2194 110.168 79.9409C113.024 82.0381 115.24 82.1622 118.08 79.9617C122.256 76.7262 123.461 67.2289 123.461 67.2289" stroke="#003749" stroke-width="4.19231" stroke-linecap="round"/>
</svg>
