<svg width="32" height="33" viewBox="0 0 32 33" fill="none" xmlns="http://www.w3.org/2000/svg">
<path d="M25.9998 17.2629L15.9997 27.1669L5.99975 17.2629C5.34016 16.6211 4.82061 15.8496 4.47381 14.9971C4.12702 14.1446 3.9605 13.2295 3.98473 12.3095C4.00897 11.3895 4.22343 10.4844 4.61463 9.65135C5.00582 8.81829 5.56526 8.07524 6.25773 7.46901C6.9502 6.86278 7.76069 6.40649 8.63817 6.12888C9.51564 5.85127 10.4411 5.75835 11.3562 5.85597C12.2714 5.95359 13.1564 6.23965 13.9556 6.69611C14.7548 7.15258 15.4507 7.76957 15.9997 8.50824C16.5511 7.77493 17.2479 7.16333 18.0466 6.71171C18.8452 6.26009 19.7284 5.97817 20.641 5.8836C21.5536 5.78902 22.4759 5.88383 23.3501 6.16209C24.2244 6.44035 25.0318 6.89607 25.7218 7.50072C26.4119 8.10537 26.9697 8.84595 27.3603 9.67609C27.751 10.5062 27.9661 11.4081 27.9922 12.3252C28.0183 13.2423 27.8548 14.1549 27.5119 15.0059C27.1691 15.8569 26.6543 16.628 25.9998 17.2709" fill="#FFF1F3"/>
<path d="M25.9998 17.2629L15.9997 27.1669L5.99975 17.2629C5.34016 16.6211 4.82061 15.8496 4.47381 14.9971C4.12702 14.1446 3.9605 13.2295 3.98473 12.3095C4.00897 11.3895 4.22343 10.4844 4.61463 9.65135C5.00582 8.81829 5.56526 8.07524 6.25773 7.46901C6.9502 6.86278 7.76069 6.40649 8.63817 6.12888C9.51564 5.85127 10.4411 5.75835 11.3562 5.85597C12.2714 5.95359 13.1564 6.23965 13.9556 6.69611C14.7548 7.15258 15.4507 7.76957 15.9997 8.50824C16.5511 7.77493 17.2479 7.16333 18.0466 6.71171C18.8452 6.26009 19.7284 5.97817 20.641 5.8836C21.5536 5.78902 22.4759 5.88383 23.3501 6.16209C24.2244 6.44035 25.0318 6.89607 25.7218 7.50072C26.4119 8.10537 26.9697 8.84595 27.3603 9.67609C27.751 10.5062 27.9661 11.4081 27.9922 12.3252C28.0183 13.2423 27.8548 14.1549 27.5119 15.0059C27.1691 15.8569 26.6543 16.628 25.9998 17.2709" stroke="#DE376C" stroke-width="2" stroke-linecap="round" stroke-linejoin="round"/>
</svg>
