<svg width="25" height="22" viewBox="0 0 25 22" fill="none" xmlns="http://www.w3.org/2000/svg">
<path d="M22.9998 11.7629L12.9997 21.6669L2.99975 11.7629C2.34016 11.1211 1.82061 10.3496 1.47381 9.49708C1.12702 8.64458 0.960499 7.7295 0.984734 6.80948C1.00897 5.88946 1.22343 4.98442 1.61463 4.15135C2.00582 3.31829 2.56526 2.57524 3.25773 1.96901C3.9502 1.36278 4.76069 0.906488 5.63817 0.628877C6.51564 0.351266 7.44109 0.258348 8.35624 0.355971C9.27139 0.453594 10.1564 0.739645 10.9556 1.19611C11.7548 1.65258 12.4507 2.26957 12.9997 3.00824C13.5511 2.27493 14.2479 1.66333 15.0466 1.21171C15.8452 0.760087 16.7284 0.478168 17.641 0.383596C18.5536 0.289023 19.4759 0.383833 20.3501 0.662092C21.2244 0.94035 22.0318 1.39607 22.7218 2.00072C23.4119 2.60537 23.9697 3.34595 24.3603 4.17609C24.751 5.00624 24.9661 5.90808 24.9922 6.82518C25.0183 7.74228 24.8548 8.65489 24.5119 9.5059C24.1691 10.3569 23.6543 11.128 22.9998 11.7709" fill="#DE376C"/>
</svg>
