<svg width="344" height="172" viewBox="0 0 344 172" fill="none" xmlns="http://www.w3.org/2000/svg">
<path d="M8.92219 102.869C6.60903 102.869 4.62632 101.877 2.64361 100.223C0.991355 98.5692 0 96.5846 0 93.9385C0 91.2923 0.991355 89.3077 2.64361 87.6538C4.29587 86 6.60903 85.0077 8.92219 85.0077C11.2354 85.0077 13.5485 86 15.2008 87.6538C16.853 89.3077 17.8444 91.6231 17.8444 93.9385C17.8444 96.2538 16.853 98.2385 15.2008 100.223C13.5485 101.877 11.5658 102.869 8.92219 102.869Z" fill="#65ADDB"/>
<path d="M159.939 96.5846V112.131C147.712 112.131 137.798 122.054 137.798 134.292C137.798 146.531 147.712 156.454 159.939 156.454V172C139.12 172 122.267 155.131 122.267 134.292C122.267 113.454 139.12 96.5846 159.939 96.5846Z" fill="#65ADDB"/>
<path d="M108.388 16.5385C91.8655 16.5385 78.6475 30.1 78.6475 46.3077C78.6475 62.5154 91.8655 76.0769 108.388 76.0769C124.911 76.0769 138.129 62.8462 138.129 46.3077C138.129 29.7692 124.911 16.5385 108.388 16.5385ZM108.388 64.1692C98.805 64.1692 90.8742 56.2308 90.8742 46.6385C90.8742 37.0462 98.805 29.1077 108.388 29.1077C117.971 29.1077 125.902 37.0462 125.902 46.6385C125.902 56.2308 117.971 64.1692 108.388 64.1692Z" fill="#65ADDB"/>
<path d="M2.31316 114.777V167.038H15.5312V114.777H2.31316Z" fill="#65ADDB"/>
<path d="M82.6129 86C82.2824 86.6615 77.3256 90.9615 70.3862 93.6077C66.7512 94.9308 63.4467 95.5923 59.8117 95.5923C53.5331 95.5923 47.2546 93.2769 41.9673 88.6462C32.3842 80.3769 28.7493 63.8385 30.4015 37.0462H19.4966V23.8154H31.7233C33.3756 10.5846 35.3583 0.330769 35.6888 0L49.5677 2.97692C49.5677 2.97692 47.585 11.9077 46.2632 23.8154H66.4208V37.0462H45.2719C43.2891 66.8154 49.2373 75.4154 51.8809 77.7308C61.464 86 72.0384 76.7385 73.0298 75.4154L82.9433 85.6692L82.6129 86Z" fill="#65ADDB"/>
<path d="M199.262 90.9615H186.044V170.015H199.262V90.9615Z" fill="#65ADDB"/>
<path d="M305.668 170.015L305.007 157.446C305.998 157.446 314.92 156.454 317.233 147.192C318.225 142.562 314.92 137.6 311.285 131.977C306.329 124.7 301.041 116.431 303.024 106.177C304.015 100.885 308.642 91.6231 326.817 90.6308C335.408 90.3 343.67 91.6231 344 91.9538L341.687 104.192C333.095 102.538 316.573 102.208 315.251 108.492C314.259 113.454 317.564 118.746 321.529 124.7C326.156 131.977 331.773 139.915 329.46 149.838C325.825 164.723 312.277 169.685 305.668 170.015Z" fill="#65ADDB"/>
<path d="M239.577 92.9462L238.916 80.3769C239.908 80.3769 248.83 79.3846 251.143 70.1231C252.134 65.4923 248.83 60.5308 245.195 54.9077C240.238 47.6308 234.951 39.3615 236.934 29.1077C237.925 23.8154 242.551 14.5538 260.726 13.5615C269.318 13.2308 277.579 14.5538 277.91 14.8846L275.597 27.1231C267.005 25.4692 250.482 25.1385 249.16 31.4231C248.169 36.3846 251.474 41.6769 255.439 47.6308C260.065 54.9077 265.683 62.8462 263.37 72.7692C259.735 87.9846 246.186 92.6154 239.577 92.9462Z" fill="#65ADDB"/>
<path d="M104.423 167.369H90.2133V150.5C90.2133 139.254 80.9606 129.992 69.7253 129.992C58.4899 129.992 49.2373 139.254 49.2373 150.5V167.369H35.0279V150.5C35.0279 131.315 50.5591 115.769 69.7253 115.769C88.8915 115.769 104.423 131.315 104.423 150.5V167.369Z" fill="#65ADDB"/>
<path d="M253.126 166.708C233.96 166.708 218.428 151.162 218.428 131.977V115.108H232.638V131.977C232.638 143.223 241.891 152.485 253.126 152.485C264.361 152.485 273.614 143.223 273.614 131.977V115.108H287.823V131.977C287.823 151.162 272.292 166.708 253.126 166.708Z" fill="#65ADDB"/>
<path d="M186.375 75.7461C167.208 75.7461 151.677 60.2 151.677 41.0154V24.1462H165.887V41.0154C165.887 52.2615 175.139 61.5231 186.375 61.5231C197.61 61.5231 206.863 52.2615 206.863 41.0154V24.1462H221.072V41.0154C221.072 60.2 205.541 75.7461 186.375 75.7461Z" fill="#65ADDB"/>
</svg>
