<svg width="35" height="35" viewBox="0 0 35 35" fill="none" xmlns="http://www.w3.org/2000/svg">
<path d="M25.9587 28.9005L22.7912 30.5601C22.6972 30.609 22.5915 30.6308 22.4858 30.6231C22.3801 30.6154 22.2787 30.5785 22.1927 30.5165C22.1068 30.4545 22.0398 30.3698 21.9992 30.2719C21.9587 30.174 21.9461 30.0668 21.9629 29.9621L22.5681 26.4461L20.0058 23.9567C19.9293 23.8828 19.8752 23.7888 19.8496 23.6856C19.8239 23.5824 19.8278 23.474 19.8608 23.3729C19.8938 23.2717 19.9546 23.1819 20.0362 23.1137C20.1178 23.0454 20.2169 23.0015 20.3223 22.9869L23.8631 22.4736L25.4469 19.2755C25.4942 19.1802 25.5672 19.1001 25.6577 19.044C25.7481 18.988 25.8524 18.9583 25.9587 18.9583C26.0651 18.9583 26.1694 18.988 26.2598 19.044C26.3502 19.1001 26.4233 19.1802 26.4706 19.2755L28.0544 22.4736L31.5952 22.9869C31.7003 23.002 31.799 23.0462 31.8802 23.1146C31.9615 23.1829 32.022 23.2725 32.0549 23.3734C32.0878 23.4744 32.0919 23.5825 32.0666 23.6855C32.0412 23.7886 31.9876 23.8825 31.9117 23.9567L29.3494 26.4461L29.9531 29.9607C29.9712 30.0655 29.9596 30.1733 29.9195 30.2718C29.8795 30.3703 29.8126 30.4556 29.7265 30.5181C29.6404 30.5805 29.5385 30.6175 29.4324 30.6249C29.3263 30.6324 29.2202 30.6099 29.1262 30.5601L25.9587 28.9005Z" fill="#F7A917"/>
<path d="M9.04193 28.9005L5.87443 30.5601C5.78043 30.609 5.67469 30.6308 5.569 30.6231C5.46331 30.6154 5.36184 30.5785 5.27592 30.5165C5.19 30.4545 5.123 30.3698 5.08242 30.2719C5.04184 30.174 5.02926 30.0668 5.0461 29.9621L5.65131 26.4461L3.08902 23.9567C3.01254 23.8828 2.95838 23.7888 2.93274 23.6856C2.9071 23.5824 2.911 23.474 2.944 23.3729C2.977 23.2717 3.03777 23.1819 3.11937 23.1137C3.20096 23.0454 3.30011 23.0015 3.40547 22.9869L6.94631 22.4736L8.53006 19.2755C8.57742 19.1802 8.65043 19.1001 8.74085 19.044C8.83128 18.988 8.93555 18.9583 9.04193 18.9583C9.14831 18.9583 9.25258 18.988 9.34301 19.044C9.43344 19.1001 9.50644 19.1802 9.55381 19.2755L11.1376 22.4736L14.6784 22.9869C14.7834 23.002 14.8822 23.0462 14.9634 23.1146C15.0447 23.1829 15.1052 23.2725 15.1381 23.3734C15.171 23.4744 15.1751 23.5825 15.1497 23.6855C15.1244 23.7886 15.0708 23.8825 14.9948 23.9567L12.4326 26.4461L13.0363 29.9607C13.0544 30.0655 13.0428 30.1733 13.0027 30.2718C12.9627 30.3703 12.8958 30.4556 12.8097 30.5181C12.7236 30.5805 12.6217 30.6175 12.5156 30.6249C12.4095 30.6324 12.3034 30.6099 12.2094 30.5601L9.04193 28.9005Z" fill="#F7A917"/>
<path d="M17.5003 14.3171L14.3328 15.9767C14.2388 16.0256 14.1331 16.0475 14.0274 16.0398C13.9217 16.0321 13.8202 15.9952 13.7343 15.9331C13.6484 15.8711 13.5814 15.7864 13.5408 15.6886C13.5002 15.5907 13.4877 15.4834 13.5045 15.3788L14.1097 11.8628L11.5474 9.37338C11.4709 9.29945 11.4168 9.2055 11.3911 9.10227C11.3655 8.99903 11.3694 8.89066 11.4024 8.78954C11.4354 8.68841 11.4962 8.5986 11.5778 8.53036C11.6594 8.46211 11.7585 8.41819 11.8639 8.40359L15.4047 7.89026L16.9885 4.69213C17.0358 4.59688 17.1088 4.51673 17.1993 4.46071C17.2897 4.40468 17.394 4.375 17.5003 4.375C17.6067 4.375 17.711 4.40468 17.8014 4.46071C17.8918 4.51673 17.9648 4.59688 18.0122 4.69213L19.596 7.89026L23.1368 8.40359C23.2419 8.41871 23.3406 8.46292 23.4218 8.53122C23.5031 8.59953 23.5636 8.68921 23.5965 8.79011C23.6294 8.89102 23.6335 8.99912 23.6081 9.1022C23.5828 9.20528 23.5292 9.29921 23.4533 9.37338L20.891 11.8628L21.4947 15.3773C21.5128 15.4821 21.5012 15.5899 21.4611 15.6885C21.4211 15.787 21.3542 15.8723 21.2681 15.9347C21.182 15.9972 21.0801 16.0342 20.974 16.0416C20.8679 16.049 20.7618 16.0265 20.6678 15.9767L17.5003 14.3171Z" fill="#F7A917"/>
<path d="M25.9587 28.9005L22.7912 30.5601C22.6972 30.609 22.5915 30.6308 22.4858 30.6231C22.3801 30.6154 22.2787 30.5785 22.1927 30.5165C22.1068 30.4545 22.0398 30.3698 21.9992 30.2719C21.9587 30.174 21.9461 30.0668 21.9629 29.9621L22.5681 26.4461L20.0058 23.9567C19.9293 23.8828 19.8752 23.7888 19.8496 23.6856C19.8239 23.5824 19.8278 23.474 19.8608 23.3729C19.8938 23.2717 19.9546 23.1819 20.0362 23.1137C20.1178 23.0454 20.2169 23.0015 20.3223 22.9869L23.8631 22.4736L25.4469 19.2755C25.4942 19.1802 25.5672 19.1001 25.6577 19.044C25.7481 18.988 25.8524 18.9583 25.9587 18.9583C26.0651 18.9583 26.1694 18.988 26.2598 19.044C26.3502 19.1001 26.4233 19.1802 26.4706 19.2755L28.0544 22.4736L31.5952 22.9869C31.7003 23.002 31.799 23.0462 31.8802 23.1146C31.9615 23.1829 32.022 23.2725 32.0549 23.3734C32.0878 23.4744 32.0919 23.5825 32.0666 23.6855C32.0412 23.7886 31.9876 23.8825 31.9117 23.9567L29.3494 26.4461L29.9531 29.9607C29.9712 30.0655 29.9596 30.1733 29.9195 30.2718C29.8795 30.3703 29.8126 30.4556 29.7265 30.5181C29.6404 30.5805 29.5385 30.6175 29.4324 30.6249C29.3263 30.6324 29.2202 30.6099 29.1262 30.5601L25.9587 28.9005Z" stroke="#F7A917" stroke-width="2.91667" stroke-linecap="round" stroke-linejoin="round"/>
<path d="M9.04193 28.9005L5.87443 30.5601C5.78043 30.609 5.67469 30.6308 5.569 30.6231C5.46331 30.6154 5.36184 30.5785 5.27592 30.5165C5.19 30.4545 5.123 30.3698 5.08242 30.2719C5.04184 30.174 5.02926 30.0668 5.0461 29.9621L5.65131 26.4461L3.08902 23.9567C3.01254 23.8828 2.95838 23.7888 2.93274 23.6856C2.9071 23.5824 2.911 23.474 2.944 23.3729C2.977 23.2717 3.03777 23.1819 3.11937 23.1137C3.20096 23.0454 3.30011 23.0015 3.40547 22.9869L6.94631 22.4736L8.53006 19.2755C8.57742 19.1802 8.65043 19.1001 8.74085 19.044C8.83128 18.988 8.93555 18.9583 9.04193 18.9583C9.14831 18.9583 9.25258 18.988 9.34301 19.044C9.43344 19.1001 9.50644 19.1802 9.55381 19.2755L11.1376 22.4736L14.6784 22.9869C14.7834 23.002 14.8822 23.0462 14.9634 23.1146C15.0447 23.1829 15.1052 23.2725 15.1381 23.3734C15.171 23.4744 15.1751 23.5825 15.1497 23.6855C15.1244 23.7886 15.0708 23.8825 14.9948 23.9567L12.4326 26.4461L13.0363 29.9607C13.0544 30.0655 13.0428 30.1733 13.0027 30.2718C12.9627 30.3703 12.8958 30.4556 12.8097 30.5181C12.7236 30.5805 12.6217 30.6175 12.5156 30.6249C12.4095 30.6324 12.3034 30.6099 12.2094 30.5601L9.04193 28.9005Z" stroke="#F7A917" stroke-width="2.91667" stroke-linecap="round" stroke-linejoin="round"/>
<path d="M17.5003 14.3171L14.3328 15.9767C14.2388 16.0256 14.1331 16.0475 14.0274 16.0398C13.9217 16.0321 13.8202 15.9952 13.7343 15.9331C13.6484 15.8711 13.5814 15.7864 13.5408 15.6886C13.5002 15.5907 13.4877 15.4834 13.5045 15.3788L14.1097 11.8628L11.5474 9.37338C11.4709 9.29945 11.4168 9.2055 11.3911 9.10227C11.3655 8.99903 11.3694 8.89066 11.4024 8.78954C11.4354 8.68841 11.4962 8.5986 11.5778 8.53036C11.6594 8.46211 11.7585 8.41819 11.8639 8.40359L15.4047 7.89026L16.9885 4.69213C17.0358 4.59688 17.1088 4.51673 17.1993 4.46071C17.2897 4.40468 17.394 4.375 17.5003 4.375C17.6067 4.375 17.711 4.40468 17.8014 4.46071C17.8918 4.51673 17.9648 4.59688 18.0122 4.69213L19.596 7.89026L23.1368 8.40359C23.2419 8.41871 23.3406 8.46292 23.4218 8.53122C23.5031 8.59953 23.5636 8.68921 23.5965 8.79011C23.6294 8.89102 23.6335 8.99912 23.6081 9.1022C23.5828 9.20528 23.5292 9.29921 23.4533 9.37338L20.891 11.8628L21.4947 15.3773C21.5128 15.4821 21.5012 15.5899 21.4611 15.6885C21.4211 15.787 21.3542 15.8723 21.2681 15.9347C21.182 15.9972 21.0801 16.0342 20.974 16.0416C20.8679 16.049 20.7618 16.0265 20.6678 15.9767L17.5003 14.3171Z" stroke="#F7A917" stroke-width="2.91667" stroke-linecap="round" stroke-linejoin="round"/>
</svg>
