<svg width="112" height="112" viewBox="0 0 112 112" fill="none" xmlns="http://www.w3.org/2000/svg">
<path d="M100.091 66.9438C100.358 68.177 100.5 69.435 100.5 70.7054C100.5 72.5335 99.0128 74.0207 97.1847 74.0207H27.0233C27.0667 73.872 27.1101 73.7109 27.1596 73.5559C27.2526 73.2213 27.0543 72.8681 26.7135 72.7751C26.6577 72.7565 26.6019 72.7504 26.5461 72.7504H97.1909C98.3187 72.7504 99.2359 71.8332 99.2359 70.7054C99.2359 69.6643 99.1367 68.6294 98.9322 67.6069H99.459C99.806 67.6069 100.091 67.3219 100.091 66.9748V66.9438Z" fill="#00465C"/>
<path d="M100.091 66.944V66.975C100.091 67.3282 99.806 67.607 99.459 67.607H98.9322C98.8517 67.1794 98.7525 66.7581 98.6348 66.3367H99.459C99.7254 66.3367 99.9485 66.4978 100.041 66.7209C100.06 66.7952 100.072 66.8634 100.091 66.9316" fill="#00465C"/>
<path d="M100.042 66.7332C100.066 66.8013 100.085 66.8695 100.091 66.9438C100.072 66.8757 100.06 66.8013 100.042 66.7332Z" fill="#00465C"/>
<path d="M100.041 66.727C99.9484 66.5039 99.7192 66.3428 99.4589 66.3428H98.6347C98.4674 65.7417 98.2691 65.153 98.0398 64.5767H98.4736C98.8268 64.5767 99.1057 64.2916 99.1057 63.9446C99.1057 63.9012 99.1057 63.8578 99.0933 63.8145C99.4961 64.7564 99.8121 65.7293 100.041 66.727Z" fill="#00465C"/>
<path d="M99.0932 63.8143C99.0994 63.8577 99.1056 63.8949 99.1056 63.9444C99.1056 64.2977 98.8205 64.5765 98.4735 64.5765H98.0397C97.8662 64.1427 97.6803 63.7213 97.4696 63.3062H98.4735C98.6904 63.3062 98.8825 63.4177 98.994 63.585C99.025 63.6594 99.056 63.7337 99.087 63.8081C99.087 63.8081 99.087 63.8081 99.087 63.8143" fill="#00465C"/>
<path d="M99.0933 63.8082C99.0623 63.7338 99.0314 63.6595 99.0004 63.5913C99.0437 63.6595 99.0747 63.7276 99.0933 63.8082Z" fill="#00465C"/>
<path d="M99.0004 63.585C98.8888 63.4177 98.6967 63.3061 98.4736 63.3061H97.4697C96.6765 61.7197 95.6292 60.2634 94.3589 58.9993L91.2976 55.9628H91.4091C91.7562 55.9628 92.0412 55.6777 92.0412 55.3307C92.0412 55.151 91.9731 54.9961 91.8553 54.8783L91.9297 54.804L95.2512 58.1069C96.8438 59.6809 98.108 61.5524 98.9942 63.5912" fill="#00465C"/>
<path d="M98.9322 67.607H13.5326C13.4706 67.1918 13.4087 66.7705 13.3529 66.3367H98.6409C98.7587 66.7581 98.8578 67.1794 98.9384 67.607" fill="#00465C"/>
<path d="M98.6348 66.3425H13.3467C13.2723 65.7662 13.2042 65.1775 13.1422 64.5764H98.0337C98.2629 65.1527 98.4675 65.7414 98.6286 66.3425" fill="#00465C"/>
<path d="M97.4697 63.3062C97.6804 63.7213 97.8725 64.1427 98.0398 64.5765H13.1484C13.105 64.1613 13.0678 63.7337 13.0306 63.3062H97.4697Z" fill="#00465C"/>
<path d="M91.9296 54.804L91.8552 54.8783C91.7437 54.7668 91.5826 54.6924 91.4091 54.6924H90.021L79.542 44.2878H79.8023C80.1493 44.2878 80.4343 44.0028 80.4343 43.6557C80.4343 43.476 80.3662 43.3211 80.2484 43.2034L91.9296 54.804Z" fill="#00465C"/>
<path d="M91.8554 54.8785C91.9731 54.9901 92.0413 55.1512 92.0413 55.3309C92.0413 55.6779 91.7563 55.963 91.4092 55.963H91.2977L90.0211 54.6926H91.4092C91.5827 54.6926 91.7439 54.7608 91.8554 54.8785Z" fill="#00465C"/>
<path d="M90.021 54.6926L91.2976 55.9629H54.8164C53.1556 55.9629 51.8047 54.6058 51.8047 52.945V46.0355C51.8047 44.3685 53.1556 43.0176 54.8164 43.0176H78.1477C78.5691 43.3584 78.9719 43.7178 79.3561 44.102L79.5421 44.2879H54.8164C53.8559 44.2879 53.0689 45.0688 53.0689 46.0355V52.945C53.0689 53.9117 53.8497 54.6926 54.8164 54.6926H90.021Z" fill="#65ADDB"/>
<path d="M79.542 44.2878L90.021 54.6925H54.8164C53.8559 54.6925 53.0688 53.9054 53.0688 52.9449V46.0354C53.0688 45.0687 53.8497 44.2878 54.8164 44.2878H79.542Z" fill="#65ADDB"/>
<path d="M80.2486 43.2035C80.3663 43.315 80.4345 43.4761 80.4345 43.6559C80.4345 44.0029 80.1494 44.2879 79.8024 44.2879H79.5359L79.35 44.102C78.9658 43.7178 78.563 43.3584 78.1416 43.0176H79.7962C79.9511 43.0176 80.0874 43.0734 80.199 43.1601C80.2176 43.1725 80.23 43.1911 80.2424 43.2035" fill="#00465C"/>
<path d="M80.2051 43.1601C80.0936 43.0733 79.9573 43.0175 79.8023 43.0175H78.1478C75.2104 40.6131 71.5728 39.3118 67.737 39.3118H26.038C26.1061 39.3118 26.1743 39.2994 26.2363 39.2746C26.5709 39.1631 26.7506 38.8036 26.6391 38.4752C26.5895 38.3265 26.5461 38.1839 26.4903 38.0476H67.7308C72.428 38.0476 76.8588 39.8633 80.1989 43.1663" fill="#00465C"/>
<path d="M52.4368 31.8506C52.7839 31.8506 53.0689 32.1356 53.0689 32.4827C53.0689 32.8297 52.7839 33.1148 52.4368 33.1148H32.0056C31.6524 33.1148 31.3735 32.8297 31.3735 32.4827C31.3735 32.1356 31.6586 31.8506 32.0056 31.8506H52.4368Z" fill="#00465C"/>
<path d="M46.6984 52.1641V46.8224C46.6984 45.4281 45.5644 44.2879 44.1639 44.2879H38.8221C37.4278 44.2879 36.2876 45.4219 36.2876 46.8224V52.1641C36.2876 53.5584 37.4216 54.6925 38.8221 54.6925H44.1639C45.5582 54.6925 46.6984 53.5584 46.6984 52.1641ZM47.9626 46.8224V52.1641C47.9626 54.2587 46.2584 55.9628 44.1639 55.9628H38.8221C36.7276 55.9628 35.0234 54.2587 35.0234 52.1641V46.8224C35.0234 44.7278 36.7276 43.0237 38.8221 43.0237H44.1639C46.2584 43.0237 47.9626 44.7278 47.9626 46.8224Z" fill="#65ADDB"/>
<path d="M47.0827 29.124C47.4359 29.124 47.7148 29.4091 47.7148 29.7561C47.7148 30.1031 47.4297 30.3882 47.0827 30.3882H26.6453C26.2982 30.3882 26.0132 30.1031 26.0132 29.7561C26.0132 29.4091 26.2982 29.124 26.6453 29.124H47.0765H47.0827Z" fill="#00465C"/>
<path d="M46.6985 46.8224V52.1641C46.6985 53.5584 45.5644 54.6925 44.1701 54.6925H38.8284C37.4341 54.6925 36.3 53.5584 36.3 52.1641V46.8224C36.3 45.4281 37.4341 44.2878 38.8284 44.2878H44.1701C45.5644 44.2878 46.6985 45.4219 46.6985 46.8224Z" fill="#65ADDB"/>
<path d="M31.3673 52.1641V46.8224C31.3673 45.4281 30.2332 44.2879 28.8327 44.2879H23.491C22.0967 44.2879 20.9565 45.4219 20.9565 46.8224V52.1641C20.9565 53.5584 22.0905 54.6925 23.491 54.6925H28.8327C30.227 54.6925 31.3673 53.5584 31.3673 52.1641ZM32.6376 46.8224V52.1641C32.6376 54.2587 30.9335 55.9628 28.8389 55.9628H23.4972C21.4026 55.9628 19.6985 54.2587 19.6985 52.1641V46.8224C19.6985 44.7278 21.4026 43.0237 23.4972 43.0237H28.8389C30.9335 43.0237 32.6376 44.7278 32.6376 46.8224Z" fill="#65ADDB"/>
<path d="M31.3673 46.8224V52.1641C31.3673 53.5584 30.2332 54.6925 28.8389 54.6925H23.4972C22.1029 54.6925 20.9689 53.5584 20.9689 52.1641V46.8224C20.9689 45.4281 22.1029 44.2878 23.4972 44.2878H28.8389C30.2332 44.2878 31.3673 45.4219 31.3673 46.8224Z" fill="#65ADDB"/>
<path d="M26.7133 72.7752C27.0542 72.8681 27.2525 73.2214 27.1595 73.556C27.1161 73.7171 27.0728 73.872 27.0232 74.0208H25.7032C25.7838 73.7605 25.8582 73.494 25.9325 73.2214C26.0131 72.9363 26.2672 72.7566 26.546 72.7566C26.6018 72.7566 26.6576 72.7566 26.7133 72.7814" fill="#00465C"/>
<path d="M25.6971 74.0206H27.0171C25.3563 79.7404 22.9829 82.876 20.3182 82.876C17.8332 82.876 15.559 80.0812 13.923 74.9998C12.9191 71.8827 12.2002 68.115 11.816 64.0002C11.847 64.3225 12.1197 64.5704 12.4481 64.5704H13.136C13.198 65.1715 13.2661 65.7602 13.3405 66.3365H13.1298C12.7828 66.3365 12.4977 66.6215 12.4977 66.9686C12.4977 67.3156 12.7828 67.6006 13.1298 67.6006H13.5202C13.7991 69.4783 14.1585 71.2011 14.5675 72.7441C14.2328 72.7627 13.9664 73.0415 13.9664 73.3762C13.9664 73.7108 14.2514 74.0083 14.5985 74.0083H14.9207C16.377 78.8171 18.3848 81.5995 20.312 81.5995C22.2392 81.5995 24.2408 78.7799 25.6847 74.0083" fill="#00465C"/>
<path d="M26.6391 38.475C26.7506 38.8097 26.5709 39.1691 26.2363 39.2744C26.1681 39.2992 26.1 39.3054 26.038 39.3054C25.7777 39.3054 25.5236 39.1381 25.4369 38.8716C25.3439 38.5866 25.2448 38.3077 25.1456 38.0413H26.4966C26.5461 38.1776 26.5957 38.3263 26.6453 38.4688" fill="#00465C"/>
<path d="M14.6108 72.7502H26.5399C26.2672 72.7502 26.0069 72.9362 25.9264 73.215C25.852 73.4877 25.7776 73.7603 25.6971 74.0144H14.9331C14.8153 73.6116 14.6914 73.184 14.5798 72.7502C14.586 72.7502 14.6046 72.7502 14.617 72.7502" fill="#00465C"/>
<path d="M26.4903 38.0476H25.1393C23.7574 34.2675 22.0223 32.1234 20.3182 32.1234C18.614 32.1234 16.8727 34.2675 15.4846 38.0476H14.6046C14.3443 38.0476 14.115 38.2088 14.0221 38.4318C15.6581 33.5425 17.889 30.853 20.3244 30.853C22.7597 30.853 24.8729 33.4 26.4903 38.0476Z" fill="#00465C"/>
<path d="M26.0379 39.3055H15.057C15.1995 38.8655 15.3421 38.4442 15.4908 38.0352H25.1456C25.2447 38.3016 25.3377 38.5805 25.4368 38.8655C25.5236 39.132 25.7777 39.2993 26.0379 39.2993" fill="#00465C"/>
<path d="M14.9331 74.0205H25.7033C24.2595 78.7921 22.2764 81.6117 20.3306 81.6117C18.3848 81.6117 16.3956 78.8293 14.9393 74.0205" fill="#00465C"/>
<path d="M25.1456 38.0478H15.4908C16.879 34.2677 18.6265 32.1235 20.3244 32.1235C22.0224 32.1235 23.7637 34.2677 25.1456 38.0478Z" fill="#00465C"/>
<path d="M14.6108 38.0476H15.4908C15.3421 38.4504 15.1996 38.878 15.057 39.318H14.6108C14.2638 39.318 13.9788 39.0329 13.9788 38.6859C13.9788 38.6239 13.985 38.562 14.0035 38.5062C14.0159 38.4814 14.0221 38.4628 14.0283 38.438C14.1213 38.2149 14.3506 38.0538 14.6108 38.0538" fill="#00465C"/>
<path d="M14.6108 39.3118H15.057C13.6937 43.6248 12.7704 49.673 12.7704 56.8614C12.7704 59.1295 12.8633 61.286 13.0306 63.3062H12.4605C12.1073 63.3062 11.8284 63.5913 11.8284 63.9383C11.8284 63.9631 11.8284 63.9817 11.8284 64.0003C11.6115 61.7074 11.5 59.3092 11.5 56.8614C11.5 50.0201 12.3614 43.5815 13.9292 38.7231C13.954 38.6487 13.9788 38.5682 14.0036 38.5C13.985 38.5558 13.9788 38.6177 13.9788 38.6797C13.9788 39.0329 14.2638 39.3118 14.6108 39.3118Z" fill="#00465C"/>
<path d="M14.9331 74.0208H14.6108C14.2638 74.0208 13.9788 73.7357 13.9788 73.3887C13.9788 73.0416 14.2452 72.7752 14.5799 72.7566C14.6914 73.1966 14.8153 73.618 14.9331 74.0208Z" fill="#00465C"/>
<path d="M13.5325 67.6069H13.1421C12.7951 67.6069 12.51 67.3219 12.51 66.9749C12.51 66.6278 12.7951 66.3428 13.1421 66.3428H13.3528C13.4086 66.7766 13.4705 67.1979 13.5325 67.6131" fill="#00465C"/>
<path d="M13.1484 64.5767H12.4606C12.1321 64.5767 11.8595 64.3288 11.8285 64.0066C11.8285 63.988 11.8285 63.9632 11.8285 63.9446C11.8285 63.5976 12.1135 63.3125 12.4606 63.3125H13.0307C13.0679 63.7401 13.1051 64.1677 13.1484 64.5829" fill="#00465C"/>
</svg>
