<svg width="128" height="128" viewBox="0 0 128 128" fill="none" xmlns="http://www.w3.org/2000/svg">
<g clip-path="url(#clip0_80_2)">
<rect x="0.196167" width="128" height="128" rx="15.0588" fill="#FEF2E9"/>
<path d="M85.6257 23.283C83.3884 23.283 81.4707 22.3241 79.553 20.726C77.9549 19.1279 76.996 17.2102 76.996 14.6532C76.996 12.0963 77.9549 10.1786 79.553 8.58048C81.1511 6.98238 83.3884 6.02353 85.6257 6.02353C87.8631 6.02353 90.1004 6.98238 91.6985 8.58048C93.2966 10.1786 94.2555 12.4159 94.2555 14.6532C94.2555 16.8906 93.2966 18.8083 91.6985 20.726C90.1004 22.3241 88.1827 23.283 85.6257 23.283Z" fill="#DE376C"/>
<path d="M62.25 119.735C68.453 117.372 72.8838 113.532 73.1792 112.941L73.4746 112.646C81.766 104.643 86.3884 89.2677 89.0431 76.8C98.6224 97.1294 116.149 101.647 128.196 102.4V90.3529C98.8313 88.0941 94.0488 60.3151 92.3426 42.2003C92.0825 39.4387 91.9865 36.9369 92.0181 34.7892H79.2334C79.2334 34.7892 83.0196 82.8235 64.6131 103.489C63.7269 104.67 54.2746 112.941 45.7084 105.557C43.3454 103.489 38.0284 95.8089 39.8008 69.2243H58.7054V57.4089H40.6869C41.8684 46.775 43.6408 38.7996 43.6408 38.7996L31.2346 36.1412C30.9392 36.4366 29.1669 45.5935 27.69 57.4089H0.196045V69.2243H26.5084C25.0315 93.1504 28.2807 107.92 36.8469 115.304C41.5731 119.44 47.1854 121.507 52.7977 121.507C56.0469 121.507 59.0007 120.917 62.25 119.735Z" fill="#DE376C"/>
</g>
<defs>
<clipPath id="clip0_80_2">
<rect x="0.196167" width="128" height="128" rx="15.0588" fill="white"/>
</clipPath>
</defs>
</svg>
