<svg width="205" height="102" viewBox="0 0 205 102" fill="none" xmlns="http://www.w3.org/2000/svg">
<path d="M5.29615 61.0038C3.92308 61.0038 2.74615 60.4154 1.56923 59.4346C0.588462 58.4538 0 57.2769 0 55.7077C0 54.1385 0.588462 52.9615 1.56923 51.9808C2.55 51 3.92308 50.4115 5.29615 50.4115C6.66923 50.4115 8.04231 51 9.02308 51.9808C10.0038 52.9615 10.5923 54.3346 10.5923 55.7077C10.5923 57.0808 10.0038 58.2577 9.02308 59.4346C8.04231 60.4154 6.86539 61.0038 5.29615 61.0038Z" fill="#DE376C"/>
<path d="M94.9385 57.2769V66.4962C87.6808 66.4962 81.7962 72.3808 81.7962 79.6385C81.7962 86.8961 87.6808 92.7808 94.9385 92.7808V102C82.5808 102 72.5769 91.9962 72.5769 79.6385C72.5769 67.2808 82.5808 57.2769 94.9385 57.2769Z" fill="#DE376C"/>
<path d="M64.3385 9.80769C54.5308 9.80769 46.6846 17.85 46.6846 27.4615C46.6846 37.0731 54.5308 45.1154 64.3385 45.1154C74.1462 45.1154 81.9923 37.2692 81.9923 27.4615C81.9923 17.6538 74.1462 9.80769 64.3385 9.80769ZM64.3385 38.0538C58.65 38.0538 53.9423 33.3462 53.9423 27.6577C53.9423 21.9692 58.65 17.2615 64.3385 17.2615C70.0269 17.2615 74.7346 21.9692 74.7346 27.6577C74.7346 33.3462 70.0269 38.0538 64.3385 38.0538Z" fill="#DE376C"/>
<path d="M1.37308 68.0654V99.0577H9.21923V68.0654H1.37308Z" fill="#DE376C"/>
<path d="M49.0385 51C48.8423 51.3923 45.9 53.9423 41.7808 55.5115C39.6231 56.2962 37.6615 56.6885 35.5038 56.6885C31.7769 56.6885 28.05 55.3154 24.9115 52.5692C19.2231 47.6654 17.0654 37.8577 18.0462 21.9692H11.5731V14.1231H18.8308C19.8115 6.27692 20.9885 0.196154 21.1846 0L29.4231 1.76538C29.4231 1.76538 28.2462 7.06154 27.4615 14.1231H39.4269V21.9692H26.8731C25.6962 39.6231 29.2269 44.7231 30.7962 46.0962C36.4846 51 42.7615 45.5077 43.35 44.7231L49.2346 50.8038L49.0385 51Z" fill="#DE376C"/>
<path d="M118.281 53.9423H110.435V100.823H118.281V53.9423Z" fill="#DE376C"/>
<path d="M181.442 100.823L181.05 93.3692C181.638 93.3692 186.935 92.7808 188.308 87.2885C188.896 84.5423 186.935 81.6 184.777 78.2654C181.835 73.95 178.696 69.0462 179.873 62.9654C180.462 59.8269 183.208 54.3346 193.996 53.7462C199.096 53.55 204 54.3346 204.196 54.5308L202.823 61.7885C197.723 60.8077 187.915 60.6115 187.131 64.3385C186.542 67.2808 188.504 70.4192 190.858 73.95C193.604 78.2654 196.938 82.9731 195.565 88.8577C193.408 97.6846 185.365 100.627 181.442 100.823Z" fill="#DE376C"/>
<path d="M142.212 55.1192L141.819 47.6654C142.408 47.6654 147.704 47.0769 149.077 41.5846C149.665 38.8385 147.704 35.8962 145.546 32.5615C142.604 28.2462 139.465 23.3423 140.642 17.2615C141.231 14.1231 143.977 8.63077 154.765 8.04231C159.865 7.84615 164.769 8.63077 164.965 8.82692L163.592 16.0846C158.492 15.1038 148.685 14.9077 147.9 18.6346C147.312 21.5769 149.273 24.7154 151.627 28.2462C154.373 32.5615 157.708 37.2692 156.335 43.1538C154.177 52.1769 146.135 54.9231 142.212 55.1192Z" fill="#DE376C"/>
<path d="M61.9846 99.2538H53.55V89.25C53.55 82.5808 48.0577 77.0885 41.3885 77.0885C34.7192 77.0885 29.2269 82.5808 29.2269 89.25V99.2538H20.7923V89.25C20.7923 77.8731 30.0115 68.6538 41.3885 68.6538C52.7654 68.6538 61.9846 77.8731 61.9846 89.25V99.2538Z" fill="#DE376C"/>
<path d="M150.254 98.8615C138.877 98.8615 129.658 89.6423 129.658 78.2654V68.2615H138.092V78.2654C138.092 84.9346 143.585 90.4269 150.254 90.4269C156.923 90.4269 162.415 84.9346 162.415 78.2654V68.2615H170.85V78.2654C170.85 89.6423 161.631 98.8615 150.254 98.8615Z" fill="#DE376C"/>
<path d="M110.631 44.9192C99.2538 44.9192 90.0346 35.7 90.0346 24.3231V14.3192H98.4692V24.3231C98.4692 30.9923 103.962 36.4846 110.631 36.4846C117.3 36.4846 122.792 30.9923 122.792 24.3231V14.3192H131.227V24.3231C131.227 35.7 122.008 44.9192 110.631 44.9192Z" fill="#DE376C"/>
<path d="M5.29615 61.0038C3.92308 61.0038 2.74615 60.4154 1.56923 59.4346C0.588462 58.4539 0 57.2769 0 55.7077C0 54.1385 0.588462 52.9615 1.56923 51.9808C2.55 51 3.92308 50.4115 5.29615 50.4115C6.66923 50.4115 8.04231 51 9.02308 51.9808C10.0038 52.9615 10.5923 54.3346 10.5923 55.7077C10.5923 57.0808 10.0038 58.2577 9.02308 59.4346C8.04231 60.4154 6.86539 61.0038 5.29615 61.0038Z" fill="#DE376C"/>
<path d="M1.37308 68.0654V99.0577H9.21923V68.0654H1.37308Z" fill="#DE376C"/>
</svg>
