<svg width="112" height="24" viewBox="0 0 112 24" fill="none" xmlns="http://www.w3.org/2000/svg">
<path d="M2.00385 20V5.94606H10.2354V8.47577H4.81464V11.6279H10.1351V14.0773H4.81464V17.4703H10.2756V20H2.00385ZM5.23626 5.02252L6.11965 1.52911H8.89028L7.1235 5.02252H5.23626ZM22.6674 21.1444L21.6635 19.6587C20.7601 20.0402 19.7562 20.261 18.6921 20.261C14.5161 20.261 11.364 17.0085 11.364 12.9931C11.364 8.95762 14.5161 5.68506 18.6921 5.68506C22.8481 5.68506 25.9801 8.95762 25.9801 12.9931C25.9801 15.061 25.1569 16.9282 23.7917 18.2332L25.7191 21.1444H22.6674ZM14.2752 12.9931C14.2752 15.5429 15.9616 17.651 18.6921 17.651C19.2944 17.651 19.8365 17.5506 20.3184 17.3699L18.6319 14.8201H21.6836L22.306 15.7437C22.8079 14.9607 23.0689 14.017 23.0689 12.9931C23.0689 10.4433 21.4025 8.29508 18.6921 8.29508C15.9616 8.29508 14.2752 10.4433 14.2752 12.9931ZM32.9733 20.261C29.5402 20.261 27.2915 18.0124 27.2915 14.8V5.94606H30.1023V14.4989C30.1023 16.4865 31.0459 17.6911 32.9733 17.6911C34.9007 17.6911 35.8444 16.4865 35.8444 14.4989V5.94606H38.6551V14.8C38.6551 18.0124 36.4065 20.261 32.9733 20.261ZM38.2826 20L44.0247 5.94606H46.454L52.1759 20H49.1242L48.1605 17.3298H42.298L41.3343 20H38.2826ZM43.2216 14.9004H47.237L45.7312 11.0657C45.5304 10.5437 45.3497 10.0016 45.2293 9.45955C45.0887 10.0016 44.9281 10.5638 44.7274 11.0657L43.2216 14.9004ZM52.8043 20V5.94606H54.9325L61.7787 14.0773C62.1 14.4387 62.4212 14.8201 62.7023 15.2417C62.622 14.6394 62.6019 13.7761 62.6019 12.953V5.94606H65.1718V20H63.3447L56.2375 11.5476C55.9162 11.1862 55.595 10.8047 55.3139 10.3831C55.3942 10.9854 55.4143 11.8487 55.4143 12.6719V20H52.8043ZM74.002 20.261C69.826 20.261 66.6739 17.0085 66.6739 12.9931C66.6739 8.95762 69.826 5.68506 74.002 5.68506C78.158 5.68506 81.29 8.95762 81.29 12.9931C81.29 17.0085 78.158 20.261 74.002 20.261ZM69.5851 12.9931C69.5851 15.5429 71.2716 17.651 74.002 17.651C76.7125 17.651 78.3788 15.5429 78.3788 12.9931C78.3788 10.4433 76.7125 8.29508 74.002 8.29508C71.2716 8.29508 69.5851 10.4433 69.5851 12.9931ZM82.8022 20V5.94606L87.3396 5.92599C90.4917 5.90591 92.4191 7.45184 92.4191 10.2024C92.4191 12.431 91.1744 13.7962 89.0462 14.258L92.9813 20H89.6686L86.6771 15.5429C86.4763 15.2417 86.3157 14.9406 86.135 14.519H85.613V20H82.8022ZM85.613 11.9893H87.179C88.7049 11.9893 89.5682 11.3669 89.5682 10.2225C89.5682 9.09816 88.7049 8.47577 87.179 8.47577H85.613V11.9893ZM93.8603 20V5.94606H96.6711V20H93.8603ZM97.2982 20L103.04 5.94606H105.47L111.191 20H108.14L107.176 17.3298H101.314L100.35 20H97.2982ZM102.237 14.9004H106.253L104.747 11.0657C104.546 10.5437 104.365 10.0016 104.245 9.45955C104.104 10.0016 103.944 10.5638 103.743 11.0657L102.237 14.9004Z" fill="#65ADDB"/>
</svg>
