<svg width="112" height="24" viewBox="0 0 112 24" fill="none" xmlns="http://www.w3.org/2000/svg">
<path d="M2.00385 5.94606H10.2354V8.47577H4.81464V11.6279H10.1351V14.0773H4.81464V17.4703H10.2756V20H2.00385V5.94606ZM6.11965 1.52911H8.89028L7.1235 5.02252H5.23626L6.11965 1.52911ZM21.6635 19.6587C20.7132 20.0602 19.7227 20.261 18.6921 20.261C17.3269 20.261 16.0821 19.9398 14.9578 19.2973C13.8469 18.6415 12.9702 17.7581 12.3277 16.6471C11.6852 15.5362 11.364 14.3182 11.364 12.9931C11.364 11.668 11.6852 10.45 12.3277 9.33908C12.9702 8.21477 13.8469 7.32469 14.9578 6.66884C16.0821 6.01299 17.3269 5.68506 18.6921 5.68506C20.0574 5.68506 21.2954 6.01299 22.4064 6.66884C23.5173 7.32469 24.3873 8.21477 25.0164 9.33908C25.6589 10.45 25.9801 11.668 25.9801 12.9931C25.9801 14.0103 25.786 14.974 25.3979 15.8842C25.0231 16.7944 24.4877 17.5774 23.7917 18.2332L25.7191 21.1444H22.6674L21.6635 19.6587ZM14.2752 12.9931C14.2752 13.8497 14.4559 14.6327 14.8172 15.3421C15.1786 16.0515 15.6939 16.6137 16.3632 17.0286C17.0324 17.4435 17.8087 17.651 18.6921 17.651C19.281 17.651 19.8231 17.5573 20.3184 17.3699L18.6319 14.8201H21.6836L22.306 15.7437C22.8146 14.954 23.0689 14.0371 23.0689 12.9931C23.0689 12.1365 22.8882 11.3535 22.5268 10.6441C22.1788 9.92132 21.6702 9.35247 21.001 8.93754C20.3451 8.50923 19.5755 8.29508 18.6921 8.29508C17.8087 8.29508 17.0324 8.50923 16.3632 8.93754C15.6939 9.35247 15.1786 9.92132 14.8172 10.6441C14.4559 11.3535 14.2752 12.1365 14.2752 12.9931ZM32.9733 20.261C31.849 20.261 30.8519 20.0335 29.9819 19.5784C29.1252 19.1099 28.4627 18.4608 27.9942 17.6309C27.5258 16.8011 27.2915 15.8574 27.2915 14.8V5.94606H30.1023V14.4989C30.1023 15.5161 30.3432 16.3058 30.8251 16.868C31.3069 17.4168 32.023 17.6911 32.9733 17.6911C33.9236 17.6911 34.6397 17.4168 35.1216 16.868C35.6034 16.3058 35.8444 15.5161 35.8444 14.4989V5.94606H38.6551V14.8C38.6551 15.8574 38.4209 16.8011 37.9524 17.6309C37.484 18.4608 36.8147 19.1099 35.9447 19.5784C35.0881 20.0335 34.0976 20.261 32.9733 20.261ZM44.0247 5.94606H46.454L52.1759 20H49.1242L48.1605 17.3298H42.298L41.3343 20H38.2826L44.0247 5.94606ZM47.237 14.9004L45.7312 11.0657C45.5037 10.4768 45.3364 9.9414 45.2293 9.45955C45.0553 10.1288 44.888 10.6642 44.7274 11.0657L43.2216 14.9004H47.237ZM52.8043 5.94606H54.9325L61.7787 14.0773C62.1669 14.519 62.4747 14.9071 62.7023 15.2417C62.6354 14.7331 62.6019 13.9702 62.6019 12.953V5.94606H65.1718V20H63.3447L56.2375 11.5476C55.8493 11.1059 55.5415 10.7177 55.3139 10.3831C55.3808 10.8783 55.4143 11.6413 55.4143 12.6719V20H52.8043V5.94606ZM74.002 20.261C72.6368 20.261 71.392 19.9398 70.2677 19.2973C69.1568 18.6415 68.2801 17.7581 67.6376 16.6471C66.9952 15.5362 66.6739 14.3182 66.6739 12.9931C66.6739 11.668 66.9952 10.45 67.6376 9.33908C68.2801 8.21477 69.1568 7.32469 70.2677 6.66884C71.392 6.01299 72.6368 5.68506 74.002 5.68506C75.3673 5.68506 76.6054 6.01299 77.7163 6.66884C78.8272 7.32469 79.6972 8.21477 80.3263 9.33908C80.9688 10.45 81.29 11.668 81.29 12.9931C81.29 14.3182 80.9688 15.5362 80.3263 16.6471C79.6972 17.7581 78.8272 18.6415 77.7163 19.2973C76.6054 19.9398 75.3673 20.261 74.002 20.261ZM69.5851 12.9931C69.5851 13.8497 69.7658 14.6327 70.1272 15.3421C70.4886 16.0515 71.0039 16.6137 71.6731 17.0286C72.3423 17.4435 73.1187 17.651 74.002 17.651C74.8854 17.651 75.6551 17.4435 76.3109 17.0286C76.9801 16.6137 77.4888 16.0515 77.8368 15.3421C78.1982 14.6327 78.3788 13.8497 78.3788 12.9931C78.3788 12.1365 78.1982 11.3535 77.8368 10.6441C77.4888 9.92132 76.9801 9.35247 76.3109 8.93754C75.6551 8.50923 74.8854 8.29508 74.002 8.29508C73.1187 8.29508 72.3423 8.50923 71.6731 8.93754C71.0039 9.35247 70.4886 9.92132 70.1272 10.6441C69.7658 11.3535 69.5851 12.1365 69.5851 12.9931ZM82.8022 5.94606L87.3396 5.92599C88.9324 5.9126 90.1772 6.28068 91.074 7.03022C91.9707 7.77977 92.4191 8.83716 92.4191 10.2024C92.4191 11.2999 92.1247 12.19 91.5357 12.8726C90.9602 13.5553 90.1303 14.017 89.0462 14.258L92.9813 20H89.6686L86.6771 15.5429C86.4897 15.2484 86.309 14.9071 86.135 14.519H85.613V20H82.8022V5.94606ZM87.179 11.9893C87.9419 11.9893 88.5309 11.842 88.9458 11.5476C89.3607 11.2397 89.5682 10.798 89.5682 10.2225C89.5682 9.66032 89.3607 9.23201 88.9458 8.93754C88.5309 8.6297 87.9419 8.47577 87.179 8.47577H85.613V11.9893H87.179ZM93.8603 5.94606H96.6711V20H93.8603V5.94606ZM103.04 5.94606H105.47L111.191 20H108.14L107.176 17.3298H101.314L100.35 20H97.2982L103.04 5.94606ZM106.253 14.9004L104.747 11.0657C104.519 10.4768 104.352 9.9414 104.245 9.45955C104.071 10.1288 103.904 10.6642 103.743 11.0657L102.237 14.9004H106.253Z" fill="#65ADDB"/>
</svg>
