<svg width="280" height="141" viewBox="0 0 280 141" fill="none" xmlns="http://www.w3.org/2000/svg">
<path d="M7.26225 84.2308C5.37944 84.2308 3.76561 83.4231 2.15178 82.0769C0.806917 80.7308 0 79.1154 0 76.9615C0 74.8077 0.806917 73.1923 2.15178 71.8462C3.49664 70.5 5.37944 69.6923 7.26225 69.6923C9.14505 69.6923 11.0279 70.5 12.3727 71.8462C13.7176 73.1923 14.5245 75.0769 14.5245 76.9615C14.5245 78.8462 13.7176 80.4615 12.3727 82.0769C11.0279 83.4231 9.41403 84.2308 7.26225 84.2308Z" fill="#65ADDB"/>
<path d="M130.183 79.1154V91.7692C120.231 91.7692 112.161 99.8462 112.161 109.808C112.161 119.769 120.231 127.846 130.183 127.846V140.5C113.237 140.5 99.5197 126.769 99.5197 109.808C99.5197 92.8462 113.237 79.1154 130.183 79.1154Z" fill="#65ADDB"/>
<path d="M88.2229 13.9615C74.7743 13.9615 64.0154 25 64.0154 38.1923C64.0154 51.3846 74.7743 62.4231 88.2229 62.4231C101.671 62.4231 112.43 51.6538 112.43 38.1923C112.43 24.7308 101.671 13.9615 88.2229 13.9615ZM88.2229 52.7308C80.4227 52.7308 73.9673 46.2692 73.9673 38.4615C73.9673 30.6538 80.4227 24.1923 88.2229 24.1923C96.0231 24.1923 102.478 30.6538 102.478 38.4615C102.478 46.2692 96.0231 52.7308 88.2229 52.7308Z" fill="#65ADDB"/>
<path d="M1.88281 93.9231V136.462H12.6417V93.9231H1.88281Z" fill="#65ADDB"/>
<path d="M67.243 70.5C66.9741 71.0385 62.9395 74.5385 57.2911 76.6923C54.3324 77.7692 51.6427 78.3077 48.684 78.3077C43.5735 78.3077 38.463 76.4231 34.1595 72.6539C26.3593 65.9231 23.4006 52.4615 24.7454 30.6538H15.8694V19.8846H25.8213C27.1662 9.11538 28.78 0.769231 29.049 0.5L40.3458 2.92308C40.3458 2.92308 38.732 10.1923 37.6561 19.8846H54.0634V30.6538H36.8492C35.2354 54.8846 40.0768 61.8846 42.2286 63.7692C50.0288 70.5 58.6359 62.9615 59.4428 61.8846L67.512 70.2308L67.243 70.5Z" fill="#65ADDB"/>
<path d="M162.19 74.5385H151.431V138.885H162.19V74.5385Z" fill="#65ADDB"/>
<path d="M248.799 138.885L248.261 128.654C249.068 128.654 256.33 127.846 258.213 120.308C259.02 116.538 256.33 112.5 253.372 107.923C249.337 102 245.034 95.2692 246.647 86.9231C247.454 82.6154 251.22 75.0769 266.013 74.2692C273.007 74 279.731 75.0769 280 75.3462L278.117 85.3077C271.124 83.9615 257.675 83.6923 256.599 88.8077C255.793 92.8462 258.482 97.1538 261.71 102C265.476 107.923 270.048 114.385 268.165 122.462C265.207 134.577 254.179 138.615 248.799 138.885Z" fill="#65ADDB"/>
<path d="M195.005 76.1538L194.467 65.9231C195.274 65.9231 202.536 65.1154 204.419 57.5769C205.226 53.8077 202.536 49.7692 199.577 45.1923C195.543 39.2692 191.239 32.5385 192.853 24.1923C193.66 19.8846 197.426 12.3462 212.219 11.5385C219.212 11.2692 225.937 12.3462 226.206 12.6154L224.323 22.5769C217.33 21.2308 203.881 20.9615 202.805 26.0769C201.998 30.1154 204.688 34.4231 207.915 39.2692C211.681 45.1923 216.254 51.6538 214.371 59.7308C211.412 72.1154 200.384 75.8846 195.005 76.1538Z" fill="#65ADDB"/>
<path d="M84.9952 136.731H73.4294V123C73.4294 113.846 65.8982 106.308 56.7531 106.308C47.6081 106.308 40.0768 113.846 40.0768 123V136.731H28.511V123C28.511 107.385 41.1527 94.7308 56.7531 94.7308C72.3535 94.7308 84.9952 107.385 84.9952 123V136.731Z" fill="#65ADDB"/>
<path d="M206.033 136.192C190.432 136.192 177.791 123.538 177.791 107.923V94.1923H189.356V107.923C189.356 117.077 196.888 124.615 206.033 124.615C215.178 124.615 222.709 117.077 222.709 107.923V94.1923H234.275V107.923C234.275 123.538 221.633 136.192 206.033 136.192Z" fill="#65ADDB"/>
<path d="M151.7 62.1538C136.1 62.1538 123.458 49.5 123.458 33.8846V20.1538H135.024V33.8846C135.024 43.0385 142.555 50.5769 151.7 50.5769C160.845 50.5769 168.377 43.0385 168.377 33.8846V20.1538H179.942V33.8846C179.942 49.5 167.301 62.1538 151.7 62.1538Z" fill="#65ADDB"/>
</svg>
